# xmcd
# 
# Track frame offsets:
#	150
#	16948
#	39632
#
# Disc length: 747 seconds
#
# Revision: 1
# Processed by: cddbd v1.4PL0 Copyright (c) Steve Scherf et al.
# Submitted via: Audio-CD-Archiv 2.10.446
#
DISCID=1a02e903
DTITLE=Haddaway - Love Makes [CD-Single)
DYEAR=1900
DGENRE=blues
TTITLE0=Love Makes (Radio Edit)
TTITLE1=Laove Makes (Maxi Edit)
TTITLE2=Love Makes (Instrumental Edit))
EXTD=
EXTT0=
EXTT1=
EXTT2=
PLAYORDER=
